<?xml version="1.0" standalone="no"?><!DOCTYPE svg PUBLIC "-//W3C//DTD SVG 1.1//EN" "http://www.w3.org/Graphics/SVG/1.1/DTD/svg11.dtd"><svg height="18" width="18" xmlns:xlink="http://www.w3.org/1999/xlink" t="1554211707748" class="icon" style="" viewBox="0 0 1024 1024" version="1.1" xmlns="http://www.w3.org/2000/svg" p-id="13111"><defs><style type="text/css"></style></defs><path fill="#aaaaaa" d="M832 128 192 128C139.072 128 96 171.072 96 224l0 512c0 52.928 43.072 96 96 96l210.752 0 86.624 86.624C495.616 924.864 503.808 928 512 928s16.384-3.136 22.624-9.376L621.248 832 832 832c52.928 0 96-43.072 96-96L928 224C928 171.072 884.928 128 832 128zM336 512C309.536 512 288 490.464 288 464S309.536 416 336 416s48 21.536 48 48S362.464 512 336 512zM528 512c-26.464 0-48-21.536-48-48s21.536-48 48-48 48 21.536 48 48S554.464 512 528 512zM720 512c-26.464 0-48-21.536-48-48s21.536-48 48-48 48 21.536 48 48S746.464 512 720 512z" p-id="13112"></path></svg>