<?xml version="1.0" standalone="no"?><!DOCTYPE svg PUBLIC "-//W3C//DTD SVG 1.1//EN" "http://www.w3.org/Graphics/SVG/1.1/DTD/svg11.dtd"><svg height="18" width="18" xmlns:xlink="http://www.w3.org/1999/xlink" t="1554208802203" class="icon" style="" viewBox="0 0 1024 1024" version="1.1" xmlns="http://www.w3.org/2000/svg" p-id="12197"><defs><style type="text/css"></style></defs><path fill="#aaaaaa" d="M512 958.016C266.08 958.016 65.984 757.952 65.984 512 65.984 266.08 266.08 65.984 512 65.984c245.952 0 446.016 200.064 446.016 446.016C958.016 757.952 757.952 958.016 512 958.016zM512 129.984C301.344 129.984 129.984 301.344 129.984 512c0 210.624 171.36 382.016 382.016 382.016 210.624 0 382.016-171.36 382.016-382.016C894.016 301.344 722.624 129.984 512 129.984z" p-id="12198"></path><path fill="#aaaaaa" d="M512 304m-48 0a1.5 1.5 0 1 0 96 0 1.5 1.5 0 1 0-96 0Z" p-id="12199"></path><path fill="#aaaaaa" d="M512 768c-17.664 0-32-14.304-32-32l0-288c0-17.664 14.336-32 32-32s32 14.336 32 32l0 288C544 753.696 529.664 768 512 768z" p-id="12200"></path></svg>