<?xml version="1.0" standalone="no"?><!DOCTYPE svg PUBLIC "-//W3C//DTD SVG 1.1//EN" "http://www.w3.org/Graphics/SVG/1.1/DTD/svg11.dtd"><svg height="16" width="16" xmlns:xlink="http://www.w3.org/1999/xlink" t="1553225764703" class="icon" style="" viewBox="0 0 1024 1024" version="1.1" xmlns="http://www.w3.org/2000/svg" p-id="5630"><defs><style type="text/css"></style></defs><path fill="#aaaaaa" d="M192 896 128 896c-35.2 0-64-28.8-64-64L64 448c0-35.2 28.8-64 64-64l64 0c35.2 0 64 28.8 64 64l0 384C256 867.2 227.2 896 192 896zM128 448l0 384 64 0 0-384L128 448z" p-id="5631"></path><path fill="#aaaaaa" d="M800 896 352 896c-19.2 0-32-12.8-32-32L320 416c0-12.8 6.4-25.6 19.2-28.8 128-54.4 176-131.2 195.2-185.6C550.4 156.8 592 128 640 128c35.2 0 70.4 19.2 92.8 48 22.4 28.8 25.6 67.2 12.8 99.2-12.8 41.6-35.2 76.8-57.6 108.8l182.4 0c32 0 57.6 12.8 76.8 38.4 19.2 25.6 25.6 54.4 16 83.2l-99.2 342.4C854.4 876.8 828.8 896 800 896zM800 832l0 32L800 832 800 832zM384 832l416 0 99.2-342.4c3.2-9.6 0-19.2-6.4-28.8-6.4-9.6-16-12.8-25.6-12.8L608 448c-12.8 0-25.6-9.6-28.8-22.4-3.2-12.8 0-28.8 9.6-35.2 44.8-32 76.8-80 96-137.6 6.4-12.8 3.2-28.8-6.4-41.6C668.8 198.4 656 192 640 192c-19.2 0-38.4 12.8-44.8 32-22.4 64-76.8 150.4-211.2 214.4L384 832z" p-id="5632"></path></svg>