<?xml version="1.0" standalone="no"?><!DOCTYPE svg PUBLIC "-//W3C//DTD SVG 1.1//EN" "http://www.w3.org/Graphics/SVG/1.1/DTD/svg11.dtd"><svg height="16" width="16" xmlns:xlink="http://www.w3.org/1999/xlink" t="1553340134398" class="icon" style="" viewBox="0 0 1024 1024" version="1.1" xmlns="http://www.w3.org/2000/svg" p-id="5175"><defs><style type="text/css"></style></defs><path fill="#999999" d="M730.896875 529.690625c0.45-0.871875 1.18125-1.603125 1.575-2.503125 7.734375-16.0875 5.203125-35.775-8.49375-48.7125L413.50625 184.821875c-16.93125-16.003125-43.621875-15.24375-59.653125 1.659375-16.003125 16.93125-15.271875 43.621875 1.659375 59.653125l278.578125 263.53125L356.609375 777.10625c-16.7625 16.171875-17.26875 42.8625-1.096875 59.653125 8.26875 8.60625 19.321875 12.909375 30.375 12.909375 10.546875 0 21.09375-3.9375 29.278125-11.8125l307.659375-296.521875c0.590625-0.590625 0.815625-1.40625 1.40625-2.025 0.45-0.421875 0.928125-0.73125 1.378125-1.18125 2.390625-2.503125 3.65625-5.56875 5.2875-8.4375z" p-id="5176"></path></svg>