<?xml version="1.0" standalone="no"?><!DOCTYPE svg PUBLIC "-//W3C//DTD SVG 1.1//EN" "http://www.w3.org/Graphics/SVG/1.1/DTD/svg11.dtd"><svg height="18" width="18.017578125" xmlns:xlink="http://www.w3.org/1999/xlink" t="1553161035931" class="icon" style="" viewBox="0 0 1025 1024" version="1.1" xmlns="http://www.w3.org/2000/svg" p-id="1252"><defs><style type="text/css"></style></defs><path fill="#888888" d="M786.526717 741.354961C854.696182 662.757733 895.951115 560.184449 895.951115 447.975557 895.951115 200.565489 695.38561 0 447.975557 0 200.565505 0 0 200.565489 0 447.975557 0 695.385626 200.565505 895.951115 447.975557 895.951115 560.143357 895.951115 662.682626 854.726372 741.268611 786.60159L969.314056 1014.647016C981.684069 1027.017029 1002.126281 1027.199073 1014.622368 1014.702978 1027.205585 1002.119763 1027.093431 981.921653 1014.566403 969.394653L786.526717 741.354961 786.526717 741.354961 786.526717 741.354961 786.526717 741.354961 786.526717 741.354961 786.526717 741.354961 786.526717 741.354961ZM447.975557 831.954606C235.909784 831.954606 63.996508 660.04133 63.996508 447.975557 63.996508 235.909784 235.909784 63.996508 447.975557 63.996508 660.04133 63.996508 831.954606 235.909784 831.954606 447.975557 831.954606 660.04133 660.04133 831.954606 447.975557 831.954606L447.975557 831.954606 447.975557 831.954606 447.975557 831.954606 447.975557 831.954606 447.975557 831.954606 447.975557 831.954606Z" p-id="1253"></path></svg>