<?xml version="1.0" standalone="no"?><!DOCTYPE svg PUBLIC "-//W3C//DTD SVG 1.1//EN" "http://www.w3.org/Graphics/SVG/1.1/DTD/svg11.dtd"><svg height="18" width="18" xmlns:xlink="http://www.w3.org/1999/xlink" t="1554208683087" class="icon" style="" viewBox="0 0 1024 1024" version="1.1" xmlns="http://www.w3.org/2000/svg" p-id="11285"><defs><style type="text/css"></style></defs><path fill="#aaaaaa" d="M512 608c-52.928 0-96-43.072-96-96s43.072-96 96-96 96 43.072 96 96S564.928 608 512 608zM512 480c-17.632 0-32 14.368-32 32s14.368 32 32 32 32-14.368 32-32S529.632 480 512 480z" p-id="11286"></path><path fill="#aaaaaa" d="M631.04 960c-10.016 0-19.712-4.736-25.856-13.12l-73.408-100.48c-13.664 0.832-25.92 0.864-39.584 0l-73.376 100.48c-7.904 10.816-21.728 15.616-34.656 11.872-34.592-9.888-67.488-23.456-97.76-40.32-11.712-6.528-18.112-19.648-16.032-32.896l19.2-123.264c-9.824-8.704-19.136-18.016-27.84-27.808l-123.264 19.2c-13.056 1.984-26.336-4.352-32.896-16.064-16.896-30.368-30.464-63.296-40.32-97.824-3.68-12.864 1.056-26.72 11.904-34.624l100.448-73.376C177.152 524.96 176.928 518.4 176.928 512s0.224-12.96 0.672-19.776L77.12 418.816c-10.816-7.936-15.584-21.728-11.904-34.656 9.856-34.496 23.424-67.392 40.32-97.792 6.56-11.712 19.712-18.048 32.896-16.064l123.264 19.2c8.736-9.824 18.016-19.104 27.84-27.84l-19.2-123.264C268.288 125.184 274.72 112.064 286.432 105.536c30.4-16.896 63.296-30.464 97.76-40.32 12.928-3.648 26.72 1.056 34.656 11.904l73.376 100.448c13.568-0.896 25.824-0.896 39.584 0l73.408-100.48c7.904-10.848 21.664-15.52 34.656-11.904 34.464 9.856 67.328 23.424 97.76 40.32 11.712 6.528 18.112 19.648 16.064 32.896L734.432 261.76c9.824 8.736 19.104 18.016 27.808 27.776l123.328-19.2c13.152-2.016 26.336 4.384 32.864 16.032 16.896 30.4 30.496 63.296 40.352 97.824 3.648 12.896-1.088 26.688-11.904 34.624l-100.48 73.408c0.448 6.816 0.672 13.376 0.672 19.776s-0.224 12.96-0.672 19.776l100.48 73.376c10.816 7.904 15.552 21.728 11.904 34.624-9.856 34.496-23.424 67.424-40.352 97.824-6.528 11.712-19.488 18.048-32.896 16.064l-123.296-19.2c-8.672 9.76-17.984 19.072-27.808 27.776l19.232 123.296c2.048 13.248-4.352 26.368-16.064 32.896-30.24 16.832-63.136 30.4-97.76 40.32C636.928 959.584 633.984 960 631.04 960zM337.152 872.672c13.984 6.752 28.544 12.704 43.552 17.92l70.528-96.576c6.784-9.28 17.984-14.272 29.472-12.896 20.576 2.336 42.08 2.336 62.624 0 11.84-1.376 22.72 3.616 29.472 12.896l70.528 96.576c15.04-5.184 29.6-11.168 43.552-17.92l-18.432-118.368c-1.76-11.36 2.72-22.848 11.712-30.016 16.384-12.992 31.264-27.872 44.16-44.128 7.168-8.992 18.4-13.504 30.016-11.744l118.368 18.432c6.752-14.016 12.736-28.576 17.92-43.552l-96.576-70.528c-9.28-6.784-14.208-18.016-12.896-29.472 1.152-10.272 1.952-20.704 1.952-31.296s-0.768-21.024-1.952-31.296c-1.312-11.424 3.616-22.688 12.896-29.472l96.576-70.56c-5.152-15.008-11.168-29.568-17.92-43.552l-118.4 18.432c-11.328 1.696-22.816-2.688-29.984-11.744-12.896-16.256-27.776-31.104-44.16-44.128-8.992-7.168-13.472-18.592-11.712-29.984l18.432-118.4c-14.016-6.752-28.576-12.736-43.52-17.92l-70.56 96.576c-6.784 9.28-17.696 14.368-29.472 12.928-20.544-2.368-42.016-2.4-62.56 0-11.52 1.344-22.752-3.616-29.536-12.896l-70.528-96.576c-14.976 5.152-29.536 11.136-43.552 17.92l18.432 118.368c1.76 11.392-2.72 22.848-11.744 30.016-16.32 12.928-31.2 27.808-44.128 44.128-7.168 9.024-18.56 13.472-30.016 11.744l-118.368-18.432c-6.752 14.016-12.736 28.576-17.92 43.552l96.576 70.56c9.312 6.784 14.24 18.08 12.896 29.536C241.696 491.008 240.928 501.408 240.928 512s0.768 20.992 1.952 31.264c1.344 11.456-3.616 22.688-12.896 29.504l-96.576 70.528c5.184 15.008 11.168 29.568 17.92 43.552l118.368-18.432c11.392-1.76 22.848 2.752 30.016 11.744 12.896 16.32 27.744 31.168 44.128 44.128 9.024 7.168 13.504 18.624 11.744 30.016L337.152 872.672z" p-id="11287"></path></svg>