<?xml version="1.0" standalone="no"?><!DOCTYPE svg PUBLIC "-//W3C//DTD SVG 1.1//EN" "http://www.w3.org/Graphics/SVG/1.1/DTD/svg11.dtd"><svg height="16" width="16" xmlns:xlink="http://www.w3.org/1999/xlink" t="1554903014858" class="icon" style="" viewBox="0 0 1024 1024" version="1.1" xmlns="http://www.w3.org/2000/svg" p-id="5557"><defs><style type="text/css"></style></defs><path fill="#aaaaaa" d="M992 512.096c0-5.76-0.992-10.592-1.28-11.136-0.192-2.88-1.152-8.064-2.08-10.816-0.256-0.672-0.544-1.376-0.832-2.08-0.48-1.568-1.024-3.104-1.6-4.32C897.664 290.112 707.104 160 512 160 316.928 160 126.368 290.016 38.24 482.592c-1.056 2.112-1.792 4.096-2.272 5.856-0.224 0.544-0.448 1.088-0.64 1.6-1.76 5.088-1.792 8.64-1.632 7.744-0.832 3.744-1.568 11.168-1.568 11.168-0.224 2.272-0.224 4.032 0.032 6.304 0 0 0.736 6.464 1.088 7.808 0.128 1.824 0.576 4.512 1.12 6.976l-0.032 0c0.448 2.08 1.12 4.096 1.984 6.08 0.48 1.536 0.992 2.976 1.472 4.032C126.432 733.856 316.992 864 512 864c195.136 0 385.696-130.048 473.216-321.696 1.376-2.496 2.24-4.832 2.848-6.912 0.256-0.608 0.48-1.184 0.672-1.728 1.536-4.48 1.856-8.32 1.728-8.32 0 0 0 0-0.032 0.032C991.04 522.272 992 517.632 992 512.096zM927.328 514.464c-0.032 0.16-0.096 0.32-0.128 0.48-0.128 0.416-0.288 0.864-0.416 1.376C848.032 686.08 681.696 800 512 800c-169.28 0-335.328-113.568-414.88-283.968-0.16-0.576-0.32-1.152-0.512-1.696-0.064-0.544-0.16-1.024-0.192-1.344-0.064-0.352-0.128-0.8-0.192-1.248l0.032-0.416c0.16-0.704 0.288-1.44 0.384-2.208 0.128-0.416 0.256-0.832 0.384-1.28C175.84 337.984 342.304 224 512 224c169.76 0 336.192 114.08 414.752 283.68 0.096 0.32 0.16 0.608 0.256 0.832 0.064 0.288 0.16 0.576 0.256 0.864 0.16 1.28 0.32 2.528 0.48 3.168C927.552 513.184 927.456 513.824 927.328 514.464z" p-id="5558"></path><path fill="#aaaaaa" d="M512 352c-88.224 0-160 71.776-160 160s71.776 160 160 160 160-71.776 160-160S600.224 352 512 352zM512 608c-52.928 0-96-43.072-96-96s43.072-96 96-96 96 43.072 96 96S564.928 608 512 608z" p-id="5559"></path></svg>