<?xml version="1.0" standalone="no"?><!DOCTYPE svg PUBLIC "-//W3C//DTD SVG 1.1//EN" "http://www.w3.org/Graphics/SVG/1.1/DTD/svg11.dtd"><svg xmlns:xlink="http://www.w3.org/1999/xlink" height="18" width="18" t="1568862687711" class="icon" viewBox="0 0 1024 1024" version="1.1" xmlns="http://www.w3.org/2000/svg" p-id="5675"><defs><style type="text/css"></style></defs><path fill="#aaaaaa" d="M919.84 314.912l-246.816-241.984C666.944 66.976 659.008 64 650.272 63.776c-8.512 0.096-16.64 3.552-22.56 9.632L168.512 543.808c-4.416 4.512-7.392 10.272-8.576 16.448L97.984 890.912C96 901.504 99.456 912.352 107.2 919.808c6.016 5.856 14.016 8.992 22.24 8.992 2.304 0 4.672-0.256 6.976-0.768l292.448-65.216c6.112-1.344 11.712-4.512 16.064-9.024l475.584-493.824C932.672 347.296 932.384 327.2 919.84 314.912zM433.792 773.088l-122.528-121.472c-12.576-12.48-32.864-12.384-45.248 0.192-12.448 12.576-12.352 32.8 0.192 45.248l112.384 111.392L169.824 855.04l51.264-273.472L651.136 141.088l201.248 197.312L433.792 773.088z" p-id="5676"></path></svg>